<?xml version="1.0" encoding="UTF-8"?>
<!DOCTYPE svg PUBLIC "-//W3C//DTD SVG 1.1//EN" "http://www.w3.org/Graphics/SVG/1.1/DTD/svg11.dtd">
<svg xmlns="http://www.w3.org/2000/svg" version="1.1" width="463px" height="539px" style="shape-rendering:geometricPrecision; text-rendering:geometricPrecision; image-rendering:optimizeQuality; fill-rule:evenodd; clip-rule:evenodd" xmlns:xlink="http://www.w3.org/1999/xlink">
<g><path style="opacity:1" fill="#5586e2" d="M 361.5,479.5 C 363.408,441.555 364.742,403.555 365.5,365.5C 366.309,367.292 366.809,369.292 367,371.5C 369.025,297.339 370.859,223.173 372.5,149C 372.423,133.649 371.757,118.483 370.5,103.5C 369.313,98.8145 366.313,95.9811 361.5,95C 273.985,93.5931 186.652,91.4265 99.5,88.5C 100.392,78.7849 101.559,69.1183 103,59.5C 106.253,55.1394 110.586,53.4728 116,54.5C 207.826,63.06 299.66,71.56 391.5,80C 399.107,80.7724 403.107,84.9391 403.5,92.5C 391.456,218.147 379.623,343.813 368,469.5C 367.58,474.016 365.413,477.35 361.5,479.5 Z"/></g>
<g><path style="opacity:1" fill="#fe9f1d" d="M 99.5,88.5 C 186.652,91.4265 273.985,93.5931 361.5,95C 366.313,95.9811 369.313,98.8145 370.5,103.5C 368.74,190.831 367.073,278.165 365.5,365.5C 364.742,403.555 363.408,441.555 361.5,479.5C 360.229,481.934 358.229,483.434 355.5,484C 259.494,482.652 163.494,480.652 67.5,478C 59.4166,475.845 56.0833,470.512 57.5,462C 60.3719,341.113 63.2052,219.946 66,98.5C 66.7019,93.9365 69.2019,90.7698 73.5,89C 82.1603,88.5002 90.8269,88.3336 99.5,88.5 Z"/></g>
<g><path style="opacity:1" fill="#ffcd42" d="M 212.5,138.5 C 214.144,138.286 215.644,138.62 217,139.5C 217.667,145.167 217.667,150.833 217,156.5C 215.333,157.833 213.667,157.833 212,156.5C 211.212,150.418 211.379,144.418 212.5,138.5 Z"/></g>
<g><path style="opacity:1" fill="#ffd044" d="M 169.5,150.5 C 171.288,150.215 172.955,150.548 174.5,151.5C 176.667,155.167 178.833,158.833 181,162.5C 182.174,166.661 180.841,167.995 177,166.5C 173.654,161.479 171.154,156.146 169.5,150.5 Z"/></g>
<g><path style="opacity:1" fill="#ffd044" d="M 254.5,150.5 C 256.167,150.5 257.833,150.5 259.5,150.5C 257.88,157.076 254.714,162.743 250,167.5C 247.681,166.591 247.014,164.925 248,162.5C 250.446,158.606 252.612,154.606 254.5,150.5 Z"/></g>
<g><path style="opacity:1" fill="#ffd246" d="M 205.5,177.5 C 229.239,178.727 244.739,190.727 252,213.5C 256.422,239.262 247.255,258.429 224.5,271C 218.425,273.603 212.091,274.769 205.5,274.5C 179.71,268.373 166.376,252.04 165.5,225.5C 166.79,199.538 180.123,183.538 205.5,177.5 Z"/></g>
<g><path style="opacity:1" fill="#ffbe31" d="M 205.5,177.5 C 234.345,174.519 253.511,186.852 263,214.5C 266.84,246.966 253.007,267.133 221.5,275C 215.984,275.817 210.65,275.651 205.5,274.5C 212.091,274.769 218.425,273.603 224.5,271C 247.255,258.429 256.422,239.262 252,213.5C 244.739,190.727 229.239,178.727 205.5,177.5 Z"/></g>
<g><path style="opacity:1" fill="#ffd044" d="M 138.5,181.5 C 144.235,182.696 149.568,185.029 154.5,188.5C 156.265,192.014 155.265,193.514 151.5,193C 147.25,190.626 143.084,188.126 139,185.5C 138.51,184.207 138.343,182.873 138.5,181.5 Z"/></g>
<g><path style="opacity:1" fill="#ffd044" d="M 285.5,181.5 C 287.167,181.5 288.833,181.5 290.5,181.5C 290.714,183.144 290.38,184.644 289.5,186C 284.99,188.516 280.49,191.016 276,193.5C 273.681,192.591 273.014,190.925 274,188.5C 278.147,186.518 281.98,184.184 285.5,181.5 Z"/></g>
<g><path style="opacity:1" fill="#ffd145" d="M 283.5,223.5 C 289.5,223.5 295.5,223.5 301.5,223.5C 301.5,225.167 301.5,226.833 301.5,228.5C 295.491,228.666 289.491,228.499 283.5,228C 282.272,226.51 282.272,225.01 283.5,223.5 Z"/></g>
<g><path style="opacity:1" fill="#607fcb" d="M 370.5,103.5 C 371.757,118.483 372.423,133.649 372.5,149C 370.859,223.173 369.025,297.339 367,371.5C 366.809,369.292 366.309,367.292 365.5,365.5C 367.073,278.165 368.74,190.831 370.5,103.5 Z"/></g>
<g><path style="opacity:1" fill="#ffd043" d="M 127.5,223.5 C 133.509,223.334 139.509,223.501 145.5,224C 146.833,225.333 146.833,226.667 145.5,228C 139.5,228.667 133.5,228.667 127.5,228C 126.272,226.51 126.272,225.01 127.5,223.5 Z"/></g>
<g><path style="opacity:1" fill="#ffd044" d="M 151.5,258.5 C 155.252,258.501 156.252,260.167 154.5,263.5C 150.332,265.75 146.332,268.25 142.5,271C 138.912,271.611 137.746,270.111 139,266.5C 143.316,263.934 147.483,261.267 151.5,258.5 Z"/></g>
<g><path style="opacity:1" fill="#ffd044" d="M 274.5,258.5 C 279.562,260.867 284.562,263.534 289.5,266.5C 290.429,267.689 290.762,269.022 290.5,270.5C 284.635,269.737 279.302,267.571 274.5,264C 273.248,262.172 273.248,260.339 274.5,258.5 Z"/></g>
<g><path style="opacity:1" fill="#ffcf44" d="M 177.5,284.5 C 181.071,284.408 182.238,286.074 181,289.5C 178.268,293.241 175.934,297.241 174,301.5C 170.159,302.995 168.826,301.661 170,297.5C 172.512,293.139 175.012,288.806 177.5,284.5 Z"/></g>
<g><path style="opacity:1" fill="#ffd044" d="M 248.5,284.5 C 249.822,284.33 250.989,284.663 252,285.5C 254.772,290.045 257.272,294.711 259.5,299.5C 258.976,302.396 257.476,303.063 255,301.5C 252.228,296.955 249.728,292.289 247.5,287.5C 247.685,286.416 248.018,285.416 248.5,284.5 Z"/></g>
<g><path style="opacity:1" fill="#ffcd42" d="M 212.5,294.5 C 214.144,294.286 215.644,294.62 217,295.5C 217.667,301.167 217.667,306.833 217,312.5C 215.333,313.833 213.667,313.833 212,312.5C 211.212,306.418 211.379,300.418 212.5,294.5 Z"/></g>
<g><path style="opacity:1" fill="#f7cd8f" d="M 175.5,366.5 C 175.5,364.833 175.5,363.167 175.5,361.5C 167.5,361.5 159.5,361.5 151.5,361.5C 151.5,363.167 151.5,364.833 151.5,366.5C 150.539,364.735 150.205,362.735 150.5,360.5C 159.167,360.5 167.833,360.5 176.5,360.5C 176.795,362.735 176.461,364.735 175.5,366.5 Z"/></g>
<g><path style="opacity:1" fill="#f0f4ef" d="M 219.5,359.5 C 221.5,359.5 223.5,359.5 225.5,359.5C 225.5,369.5 225.5,379.5 225.5,389.5C 219.913,389.055 214.246,388.888 208.5,389C 206,387.833 204.167,386 203,383.5C 201.036,370.12 206.369,365.453 219,369.5C 219.498,366.183 219.665,362.85 219.5,359.5 Z"/></g>
<g><path style="opacity:1" fill="#f0f5f1" d="M 175.5,366.5 C 172.5,366.5 169.5,366.5 166.5,366.5C 166.5,374.167 166.5,381.833 166.5,389.5C 164.5,389.5 162.5,389.5 160.5,389.5C 160.5,381.833 160.5,374.167 160.5,366.5C 157.5,366.5 154.5,366.5 151.5,366.5C 151.5,364.833 151.5,363.167 151.5,361.5C 159.5,361.5 167.5,361.5 175.5,361.5C 175.5,363.167 175.5,364.833 175.5,366.5 Z"/></g>
<g><path style="opacity:1" fill="#f1f3eb" d="M 181.5,367.5 C 187.324,366.588 192.49,367.922 197,371.5C 201.353,385.167 196.186,391 181.5,389C 175.954,385.268 174.121,380.101 176,373.5C 177.36,370.977 179.193,368.977 181.5,367.5 Z"/></g>
<g><path style="opacity:1" fill="#f1f3ea" d="M 234.5,367.5 C 250.417,366.448 256.083,373.781 251.5,389.5C 248.921,389.917 246.754,389.25 245,387.5C 240.667,390.167 236.333,390.167 232,387.5C 229.665,383.845 230.165,380.679 233.5,378C 237.026,376.663 240.692,376.163 244.5,376.5C 244.64,374.876 243.973,373.71 242.5,373C 239.05,372.825 235.717,372.658 232.5,372.5C 231.218,370.101 231.885,368.434 234.5,367.5 Z"/></g>
<g><path style="opacity:1" fill="#f1f3eb" d="M 253.5,368.5 C 255.693,367.203 258.027,367.203 260.5,368.5C 262.333,372.833 264.167,377.167 266,381.5C 268.186,377.286 270.186,372.953 272,368.5C 274.064,367.409 276.231,367.242 278.5,368C 274.809,376.068 271.309,384.234 268,392.5C 265.103,397.155 260.937,398.655 255.5,397C 253.344,395.306 253.511,393.473 256,391.5C 257.726,392.576 259.559,392.743 261.5,392C 262.059,391.275 262.392,390.442 262.5,389.5C 260.061,382.158 257.061,375.158 253.5,368.5 Z"/></g>
<g><path style="opacity:1" fill="#fea124" d="M 184.5,372.5 C 190.82,372.32 193.32,375.32 192,381.5C 188.714,385.485 185.381,385.485 182,381.5C 180.927,377.9 181.76,374.9 184.5,372.5 Z"/></g>
<g><path style="opacity:1" fill="#fea122" d="M 211.5,372.5 C 217.82,372.32 220.32,375.32 219,381.5C 215.667,385.5 212.333,385.5 209,381.5C 207.927,377.9 208.76,374.9 211.5,372.5 Z"/></g>
<g><path style="opacity:1" fill="#fea52e" d="M 237.5,380.5 C 239.833,380.5 242.167,380.5 244.5,380.5C 243.978,385.258 241.478,386.592 237,384.5C 236.421,383.072 236.588,381.738 237.5,380.5 Z"/></g>
<g><path style="opacity:1" fill="#f4e8d0" d="M 152.5,406.5 C 159.297,407.107 160.964,410.274 157.5,416C 152.932,417.65 150.266,416.15 149.5,411.5C 150.092,409.577 151.092,407.911 152.5,406.5 Z"/></g>
<g><path style="opacity:1" fill="#f7cd8d" d="M 198.5,407.5 C 200.948,406.527 203.615,406.194 206.5,406.5C 206.825,414.019 206.492,421.352 205.5,428.5C 205.5,421.5 205.5,414.5 205.5,407.5C 203.167,407.5 200.833,407.5 198.5,407.5 Z"/></g>
<g><path style="opacity:1" fill="#f7cb8a" d="M 242.5,418.5 C 242.44,419.043 242.107,419.376 241.5,419.5C 240.833,415.167 240.167,410.833 239.5,406.5C 238.503,413.803 238.169,421.137 238.5,428.5C 237.508,421.018 237.175,413.352 237.5,405.5C 238.833,405.5 240.167,405.5 241.5,405.5C 241.182,410.032 241.515,414.366 242.5,418.5 Z"/></g>
<g><path style="opacity:1" fill="#f6d5a0" d="M 302.5,406.5 C 300.537,413.424 299.87,420.757 300.5,428.5C 299.508,421.018 299.175,413.352 299.5,405.5C 300.791,405.263 301.791,405.596 302.5,406.5 Z"/></g>
<g><path style="opacity:1" fill="#f2efe1" d="M 115.5,406.5 C 119.516,405.9 123.016,406.9 126,409.5C 126.755,412.303 126.422,414.97 125,417.5C 122.5,420 120,422.5 117.5,425C 120.817,425.498 124.15,425.665 127.5,425.5C 127.5,426.5 127.5,427.5 127.5,428.5C 122.5,428.5 117.5,428.5 112.5,428.5C 112.351,427.448 112.517,426.448 113,425.5C 117.09,421.917 120.59,417.917 123.5,413.5C 123.471,411.971 122.804,410.804 121.5,410C 118.242,409.384 115.242,409.717 112.5,411C 112.167,410.667 111.833,410.333 111.5,410C 112.731,408.595 114.064,407.429 115.5,406.5 Z"/></g>
<g><path style="opacity:1" fill="#f3efe1" d="M 198.5,407.5 C 200.833,407.5 203.167,407.5 205.5,407.5C 205.5,414.5 205.5,421.5 205.5,428.5C 204.5,428.5 203.5,428.5 202.5,428.5C 202.5,422.167 202.5,415.833 202.5,409.5C 200.517,409.843 199.183,409.176 198.5,407.5 Z"/></g>
<g><path style="opacity:1" fill="#f2f0e5" d="M 214.5,406.5 C 222.382,405.546 225.549,408.879 224,416.5C 221.167,419.333 218.333,422.167 215.5,425C 218.817,425.498 222.15,425.665 225.5,425.5C 225.5,426.5 225.5,427.5 225.5,428.5C 220.5,428.5 215.5,428.5 210.5,428.5C 211.995,424.161 214.829,420.827 219,418.5C 221.37,416.151 221.87,413.485 220.5,410.5C 217.263,408.985 214.263,409.319 211.5,411.5C 211.167,411 210.833,410.5 210.5,410C 211.686,408.588 213.019,407.421 214.5,406.5 Z"/></g>
<g><path style="opacity:1" fill="#f3eddd" d="M 295.5,402.5 C 296.497,402.47 297.164,402.97 297.5,404C 294.724,413.281 291.724,422.447 288.5,431.5C 287.325,431.719 286.325,431.386 285.5,430.5C 288.85,421.141 292.183,411.808 295.5,402.5 Z"/></g>
<g><path style="opacity:1" fill="#fea228" d="M 152.5,408.5 C 156.908,408.062 158.575,410.062 157.5,414.5C 152.074,415.416 150.407,413.416 152.5,408.5 Z"/></g>
<g><path style="opacity:1" fill="#f1f4ed" d="M 302.5,406.5 C 302.192,408.924 302.526,411.257 303.5,413.5C 307.858,411.687 311.691,412.353 315,415.5C 315.499,419.821 315.666,424.154 315.5,428.5C 314.5,428.5 313.5,428.5 312.5,428.5C 312.666,424.486 312.499,420.486 312,416.5C 308.706,413.689 305.706,414.022 303,417.5C 303.094,421.633 302.26,425.299 300.5,428.5C 299.87,420.757 300.537,413.424 302.5,406.5 Z"/></g>
<g><path style="opacity:1" fill="#f1f1e6" d="M 256.5,412.5 C 259.301,413.698 262.134,413.698 265,412.5C 267.145,412.396 268.979,413.063 270.5,414.5C 274.967,411.58 279.133,411.914 283,415.5C 283.499,419.821 283.666,424.154 283.5,428.5C 282.5,428.5 281.5,428.5 280.5,428.5C 280.666,424.486 280.499,420.486 280,416.5C 277.034,413.735 274.367,414.068 272,417.5C 271.501,421.152 271.335,424.818 271.5,428.5C 270.5,428.5 269.5,428.5 268.5,428.5C 268.666,424.486 268.499,420.486 268,416.5C 265.034,413.735 262.367,414.068 260,417.5C 259.501,421.152 259.335,424.818 259.5,428.5C 258.5,428.5 257.5,428.5 256.5,428.5C 256.5,423.167 256.5,417.833 256.5,412.5 Z"/></g>
<g><path style="opacity:1" fill="#f1f2e8" d="M 242.5,418.5 C 244.63,416.873 246.63,415.04 248.5,413C 249.833,412.333 251.167,412.333 252.5,413C 250.5,415 248.5,417 246.5,419C 248.833,422 251.167,425 253.5,428C 249.677,427.396 246.677,425.23 244.5,421.5C 241.889,423.448 239.889,425.782 238.5,428.5C 238.169,421.137 238.503,413.803 239.5,406.5C 240.167,410.833 240.833,415.167 241.5,419.5C 242.107,419.376 242.44,419.043 242.5,418.5 Z"/></g>
<g><path style="opacity:1" fill="#f2efe2" d="M 134.5,406.5 C 139.126,405.7 142.96,407.034 146,410.5C 146.92,413.308 146.087,415.475 143.5,417C 147.747,421.163 147.414,424.829 142.5,428C 132.044,430.053 128.71,426.22 132.5,416.5C 131.389,415.389 130.722,414.055 130.5,412.5C 131.432,410.235 132.765,408.235 134.5,406.5 Z"/></g>
<g><path style="opacity:1" fill="#fea634" d="M 135.5,409.5 C 137.527,409.338 139.527,409.505 141.5,410C 143.211,411.133 143.711,412.633 143,414.5C 139.102,417.584 135.935,417.084 133.5,413C 133.978,411.697 134.645,410.531 135.5,409.5 Z"/></g>
<g><path style="opacity:1" fill="#fea32b" d="M 135.5,418.5 C 140.993,417.178 143.493,419.178 143,424.5C 140.847,426.444 138.347,426.944 135.5,426C 132.88,423.441 132.88,420.941 135.5,418.5 Z"/></g>
<g><path style="opacity:1" fill="#f2efe2" d="M 170.5,406.5 C 175.05,405.884 179.05,407.051 182.5,410C 180.941,411.756 179.274,411.756 177.5,410C 168.836,409 165.336,412.834 167,421.5C 167.5,423.333 168.667,424.5 170.5,425C 174.118,425.966 177.451,425.466 180.5,423.5C 181.731,424.651 181.731,425.817 180.5,427C 167.541,430.709 162.041,425.876 164,412.5C 166.063,410.266 168.229,408.266 170.5,406.5 Z"/></g>
</svg>
